<svg width="100" height="71" viewBox="0 0 100 71" fill="none" xmlns="http://www.w3.org/2000/svg">
<path d="M16.4671 70.6466C7.38524 70.6466 0 63.2614 0 54.1795C0 45.0976 7.38524 37.7124 16.4671 37.7124C25.549 37.7124 32.9342 45.0976 32.9342 54.1795C32.9342 63.3113 25.549 70.6466 16.4671 70.6466Z" fill="#00093C"/>
<path d="M16.4671 70.6461C7.38524 70.6461 0 63.2609 0 54.179C0 45.0972 7.38524 37.7119 16.4671 37.7119C25.549 37.7119 32.9342 45.0972 32.9342 54.179C32.9342 63.3108 25.549 70.6461 16.4671 70.6461Z" fill="#00093C"/>
<path d="M55.3893 1.83384L37.525 31.0255C37.026 31.8738 37.5749 32.9217 38.523 32.9217H56.3873H74.2516C75.1998 32.9217 75.7487 31.8239 75.2497 31.0255L57.3854 1.83384C56.8864 1.08533 55.8384 1.08533 55.3893 1.83384Z" fill="#00093C"/>
<path d="M32.5849 6.77396L26.1478 0.336827C25.6987 -0.112276 24.9003 -0.112276 24.4512 0.336827L17.3653 7.42267C16.9162 7.87177 16.1178 7.87177 15.6687 7.42267L8.58287 0.336827C8.13377 -0.112276 7.33537 -0.112276 6.88627 0.336827L0.449132 6.77396C2.90022e-05 7.22307 2.90022e-05 8.02147 0.449132 8.47058L7.53497 15.5564C7.98407 16.0055 7.98407 16.8039 7.53497 17.253L0.449132 24.3389C2.90022e-05 24.788 2.90022e-05 25.5864 0.449132 26.0355L6.88627 32.4726C7.33537 32.9217 8.13377 32.9217 8.58287 32.4726L15.6687 25.3868C16.1178 24.9377 16.9162 24.9377 17.3653 25.3868L24.4512 32.4726C24.9003 32.9217 25.6987 32.9217 26.1478 32.4726L32.5849 26.0355C33.034 25.5864 33.034 24.788 32.5849 24.3389L25.4991 17.253C25.05 16.8039 25.05 16.0055 25.4991 15.5564L32.5849 8.47058C33.0839 8.02147 33.0839 7.27297 32.5849 6.77396Z" fill="#00093C"/>
<path d="M40.6685 49.0892V51.185H44.3112V52.6321H40.6685V55.4764H38.8721V47.6421H44.7603V49.0892H40.6685Z" fill="black"/>
<path d="M47.2059 54.678C46.6071 54.0792 46.2578 53.181 46.2578 52.0333V47.6421H48.0542V51.9335C48.0542 53.3307 48.653 54.0293 49.8007 54.0293C50.3496 54.0293 50.7987 53.8796 51.0981 53.5303C51.3975 53.181 51.5472 52.682 51.5472 51.9335V47.6421H53.3437V52.0333C53.3437 53.181 53.0443 54.0792 52.3956 54.678C51.7968 55.2768 50.8985 55.6261 49.8007 55.6261C48.7029 55.6261 47.8047 55.2768 47.2059 54.678Z" fill="black"/>
<path d="M56.9364 49.1391H54.4414V47.6421H61.2279V49.1391H58.7328V55.4764H56.9364V49.1391Z" fill="black"/>
<path d="M63.2733 54.678C62.6745 54.0792 62.3252 53.181 62.3252 52.0333V47.6421H64.1216V51.9335C64.1216 53.3307 64.7204 54.0293 65.8681 54.0293C66.417 54.0293 66.8661 53.8796 67.1655 53.5303C67.4649 53.181 67.6146 52.682 67.6146 51.9335V47.6421H69.411V52.0333C69.411 53.181 69.1116 54.0792 68.4629 54.678C67.8641 55.2768 66.9659 55.6261 65.8681 55.6261C64.7703 55.6261 63.922 55.2768 63.2733 54.678Z" fill="black"/>
<path d="M76.4969 55.4768L74.9999 53.2812H74.9001H73.3032V55.4768H71.5068V47.6924H74.9001C75.5987 47.6924 76.1975 47.7922 76.6965 48.0417C77.1955 48.2912 77.5947 48.5906 77.8941 49.0397C78.1436 49.4389 78.2933 49.9878 78.2933 50.5367C78.2933 51.1355 78.1436 51.6345 77.8941 52.0337C77.5947 52.4329 77.1955 52.7822 76.6965 52.9818L78.443 55.4768H76.4969V55.4768ZM76.0478 49.4888C75.7484 49.2393 75.3492 49.1395 74.8003 49.1395H73.3032V51.884H74.8003C75.3492 51.884 75.7484 51.7842 76.0478 51.5347C76.3472 51.2852 76.447 50.9858 76.447 50.5367C76.4969 50.0377 76.3472 49.7383 76.0478 49.4888Z" fill="black"/>
<path d="M86.1278 54.0293V55.4764H80.0898V47.6421H85.9781V49.0892H81.8862V50.7858H85.4791V52.2329H81.8862V54.0293H86.1278Z" fill="black"/>
<path d="M44.0119 68.2509H40.3691L39.6705 69.9475H37.8242L41.3172 62.1631H43.1137L46.6067 69.9475H44.7105L44.0119 68.2509ZM43.4629 66.9036L42.2154 63.9096L40.9679 66.9036H43.4629Z" fill="black"/>
<path d="M49.2022 69.5482C48.5534 69.1989 48.0544 68.6999 47.7051 68.1011C47.3558 67.5023 47.1562 66.8037 47.1562 66.0053C47.1562 65.2568 47.3558 64.5582 47.7051 63.9095C48.0544 63.3107 48.6033 62.8117 49.2022 62.4624C49.8509 62.1131 50.5495 61.9634 51.3479 61.9634C52.0465 61.9634 52.6453 62.0632 53.1942 62.3127C53.7431 62.5622 54.1922 62.9115 54.5914 63.3606L53.4437 64.4085C52.8948 63.8097 52.2461 63.5103 51.4976 63.5103C50.9986 63.5103 50.5994 63.6101 50.2002 63.8097C49.801 64.0093 49.5016 64.3087 49.302 64.7079C49.1024 65.1071 49.0026 65.5063 49.0026 66.0053C49.0026 66.5043 49.1024 66.9035 49.302 67.3027C49.5016 67.7019 49.801 68.0013 50.2002 68.2009C50.5994 68.4005 50.9986 68.5003 51.4976 68.5003C52.296 68.5003 52.9447 68.2009 53.4437 67.5522L54.5914 68.6001C54.2421 69.0492 53.7431 69.3985 53.1942 69.648C52.6453 69.8975 52.0465 69.9973 51.3479 69.9973C50.5994 70.0472 49.8509 69.8975 49.2022 69.5482Z" fill="black"/>
<path d="M61.1281 68.2509H57.4853L56.7867 69.9475H54.9404L58.4335 62.1631H60.2299L63.7229 69.9475H61.8267L61.1281 68.2509ZM60.5792 66.9036L59.3317 63.9096L58.0842 66.9036H60.5792Z" fill="black"/>
<path d="M64.8701 62.1133H68.413C69.2613 62.1133 70.0098 62.263 70.6585 62.6123C71.3072 62.9117 71.8062 63.4107 72.1555 63.9596C72.5049 64.5584 72.7045 65.2071 72.7045 66.0055C72.7045 66.8039 72.5049 67.4526 72.1555 68.0514C71.8062 68.6502 71.3072 69.0993 70.6585 69.3987C70.0098 69.6981 69.2613 69.8977 68.413 69.8977H64.8701V62.1133ZM68.3132 68.4506C69.1116 68.4506 69.7104 68.251 70.1595 67.8019C70.6086 67.3528 70.8582 66.754 70.8582 66.0554C70.8582 65.3069 70.6086 64.7081 70.1595 64.3089C69.7104 63.8598 69.0617 63.6602 68.3132 63.6602H66.6665V68.5005H68.3132V68.4506Z" fill="black"/>
<path d="M80.4393 68.5005V69.9476H74.4014V62.1133H80.2896V63.5604H76.1978V65.257H79.8405V66.6542H76.1978V68.5005H80.4393Z" fill="black"/>
<path d="M89.3212 69.9476V65.257L87.0258 69.0993H86.2274L83.932 65.3568V69.9476H82.2354V62.1133H83.7324L86.6266 66.9536L89.5208 62.1133H91.0178V69.9476H89.3212Z" fill="black"/>
<path d="M96.9565 67.1532V69.9476H95.1601V67.1532L92.1162 62.1133H94.0623L96.1582 65.6063L98.2041 62.1133H100L96.9565 67.1532Z" fill="black"/>
</svg>
