<svg width="84" height="59" viewBox="0 0 84 59" fill="none" xmlns="http://www.w3.org/2000/svg">
<path d="M13.6694 58.6439C6.13054 58.6439 0 52.5134 0 44.9745C0 37.4356 6.13054 31.3051 13.6694 31.3051C21.2083 31.3051 27.3389 37.4356 27.3389 44.9745C27.3389 52.5548 21.2083 58.6439 13.6694 58.6439Z" fill="white"/>
<path d="M13.6694 58.6439C6.13054 58.6439 0 52.5134 0 44.9745C0 37.4356 6.13054 31.3051 13.6694 31.3051C21.2083 31.3051 27.3389 37.4356 27.3389 44.9745C27.3389 52.5548 21.2083 58.6439 13.6694 58.6439Z" fill="white"/>
<path d="M45.9796 1.52203L31.1503 25.7542C30.7361 26.4584 31.1917 27.3283 31.9787 27.3283H46.808H61.6373C62.4243 27.3283 62.88 26.417 62.4657 25.7542L47.6365 1.52203C47.2222 0.900696 46.3524 0.900696 45.9796 1.52203Z" fill="white"/>
<path d="M27.0485 5.62311L21.705 0.279602C21.3322 -0.0932007 20.6694 -0.0932007 20.2966 0.279602L14.4146 6.1616C14.0418 6.5344 13.3791 6.5344 13.0062 6.1616L7.12424 0.279602C6.75144 -0.0932007 6.08868 -0.0932007 5.71588 0.279602L0.372375 5.62311C-0.000427268 5.99591 -0.000427268 6.65867 0.372375 7.03148L6.25437 12.9135C6.62717 13.2863 6.62717 13.949 6.25437 14.3218L0.372375 20.2038C-0.000427268 20.5766 -0.000427268 21.2394 0.372375 21.6122L5.71588 26.9557C6.08868 27.3285 6.75144 27.3285 7.12424 26.9557L13.0062 21.0737C13.3791 20.7009 14.0418 20.7009 14.4146 21.0737L20.2966 26.9557C20.6694 27.3285 21.3322 27.3285 21.705 26.9557L27.0485 21.6122C27.4213 21.2394 27.4213 20.5766 27.0485 20.2038L21.1665 14.3218C20.7937 13.949 20.7937 13.2863 21.1665 12.9135L27.0485 7.03148C27.4627 6.65867 27.4627 6.03733 27.0485 5.62311Z" fill="white"/>
<path d="M33.7588 40.7492V42.489H36.7826V43.6902H33.7588V46.0513H32.2676V39.548H37.1554V40.7492H33.7588Z" fill="white"/>
<path d="M39.1855 45.3886C38.6884 44.8915 38.3984 44.1459 38.3984 43.1932V39.548H39.8897V43.1103C39.8897 44.2701 40.3867 44.8501 41.3394 44.8501C41.7951 44.8501 42.1679 44.7258 42.4164 44.4358C42.665 44.1459 42.7892 43.7317 42.7892 43.1103V39.548H44.2804V43.1932C44.2804 44.1459 44.0319 44.8915 43.4934 45.3886C42.9963 45.8856 42.2507 46.1756 41.3394 46.1756C40.4281 46.1756 39.6825 45.8856 39.1855 45.3886Z" fill="white"/>
<path d="M47.2625 40.7906H45.1914V39.548H50.8249V40.7906H48.7537V46.0513H47.2625V40.7906Z" fill="white"/>
<path d="M52.5234 45.3886C52.0263 44.8915 51.7363 44.1459 51.7363 43.1932V39.548H53.2275V43.1103C53.2275 44.2701 53.7246 44.8501 54.6773 44.8501C55.133 44.8501 55.5058 44.7258 55.7543 44.4358C56.0028 44.1459 56.1271 43.7317 56.1271 43.1103V39.548H57.6183V43.1932C57.6183 44.1459 57.3698 44.8915 56.8313 45.3886C56.3342 45.8856 55.5886 46.1756 54.6773 46.1756C53.766 46.1756 53.0618 45.8856 52.5234 45.3886Z" fill="white"/>
<path d="M63.5007 46.0516L62.258 44.2291H62.1751H60.8496V46.0516H59.3584V39.5897H62.1751C62.755 39.5897 63.2521 39.6726 63.6663 39.8797C64.0806 40.0868 64.4119 40.3353 64.6605 40.7081C64.8676 41.0395 64.9919 41.4952 64.9919 41.9508C64.9919 42.4479 64.8676 42.8621 64.6605 43.1935C64.4119 43.5249 64.0806 43.8148 63.6663 43.9805L65.1161 46.0516H63.5007ZM63.1279 41.0809C62.8793 40.8738 62.5479 40.791 62.0923 40.791H60.8496V43.0692H62.0923C62.5479 43.0692 62.8793 42.9864 63.1279 42.7793C63.3764 42.5721 63.4592 42.3236 63.4592 41.9508C63.5006 41.5366 63.3764 41.288 63.1279 41.0809Z" fill="white"/>
<path d="M71.4955 44.8501V46.0513H66.4834V39.548H71.3713V40.7492H67.9746V42.1576H70.957V43.3589H67.9746V44.8501H71.4955Z" fill="white"/>
<path d="M36.5348 56.6557H33.511L32.9311 58.0641H31.3984L34.298 51.6022H35.7892L38.6888 58.0641H37.1147L36.5348 56.6557ZM36.0792 55.5373L35.0436 53.052L34.0081 55.5373H36.0792Z" fill="white"/>
<path d="M40.8428 57.7326C40.3044 57.4427 39.8901 57.0284 39.6002 56.5314C39.3102 56.0343 39.1445 55.4544 39.1445 54.7916C39.1445 54.1703 39.3102 53.5904 39.6002 53.0519C39.8901 52.5548 40.3458 52.1406 40.8428 51.8506C41.3813 51.5607 41.9613 51.4364 42.624 51.4364C43.2039 51.4364 43.701 51.5193 44.1566 51.7264C44.6123 51.9335 44.9851 52.2234 45.3165 52.5962L44.3638 53.4661C43.9081 52.969 43.3696 52.7205 42.7483 52.7205C42.3341 52.7205 42.0027 52.8033 41.6713 52.969C41.3399 53.1347 41.0914 53.3833 40.9257 53.7146C40.76 54.046 40.6772 54.3774 40.6772 54.7916C40.6772 55.2059 40.76 55.5372 40.9257 55.8686C41.0914 56.2 41.3399 56.4485 41.6713 56.6142C42.0027 56.7799 42.3341 56.8628 42.7483 56.8628C43.411 56.8628 43.9495 56.6142 44.3638 56.0757L45.3165 56.9456C45.0265 57.3184 44.6123 57.6084 44.1566 57.8155C43.701 58.0226 43.2039 58.1054 42.624 58.1054C42.0027 58.1469 41.3813 58.0226 40.8428 57.7326Z" fill="white"/>
<path d="M50.7428 56.6557H47.719L47.1391 58.0641H45.6064L48.506 51.6022H49.9972L52.8968 58.0641H51.3228L50.7428 56.6557ZM50.2872 55.5373L49.2516 53.052L48.2161 55.5373H50.2872Z" fill="white"/>
<path d="M53.8496 51.5605H56.7906C57.4948 51.5605 58.1161 51.6848 58.6546 51.9748C59.1931 52.2233 59.6073 52.6375 59.8973 53.0932C60.1872 53.5903 60.3529 54.1288 60.3529 54.7915C60.3529 55.4543 60.1872 55.9928 59.8973 56.4898C59.6073 56.9869 59.1931 57.3597 58.6546 57.6082C58.1161 57.8568 57.4948 58.0225 56.7906 58.0225H53.8496V51.5605ZM56.7078 56.8212C57.3705 56.8212 57.8676 56.6555 58.2404 56.2827C58.6132 55.9099 58.8203 55.4129 58.8203 54.8329C58.8203 54.2116 58.6132 53.7145 58.2404 53.3831C57.8676 53.0103 57.3291 52.8446 56.7078 52.8446H55.3408V56.8626H56.7078V56.8212Z" fill="white"/>
<path d="M66.7729 56.8626V58.0639H61.7607V51.5605H66.6486V52.7618H63.252V54.1702H66.2758V55.33H63.252V56.8626H66.7729Z" fill="white"/>
<path d="M74.1467 58.0639V54.1702L72.2412 57.3597H71.5785L69.673 54.253V58.0639H68.2646V51.5605H69.5073L71.9098 55.5785L74.3123 51.5605H75.555V58.0639H74.1467Z" fill="white"/>
<path d="M80.4838 55.7442V58.0639H78.9926V55.7442L76.4658 51.5605H78.0813L79.8211 54.4601L81.5194 51.5605H83.0106L80.4838 55.7442Z" fill="white"/>
</svg>
