<svg width="420" height="192" viewBox="0 0 420 192" fill="none" xmlns="http://www.w3.org/2000/svg">
<path fill-rule="evenodd" clip-rule="evenodd" d="M49.8945 1C38.8488 1 29.8945 9.95431 29.8945 21V101H3.2186C1.54158 101 0.609241 102.94 1.65686 104.249L29.8945 139.546V171C29.8945 182.046 38.8487 191 49.8944 191H399C410.045 191 419 182.046 419 171V21C419 9.95431 410.045 1 399 1H49.8945Z" fill="white"/>
<path d="M29.8945 101V102H30.8945V101H29.8945ZM1.65686 104.249L0.875991 104.874H0.875991L1.65686 104.249ZM29.8945 139.546H30.8945V139.196L30.6753 138.922L29.8945 139.546ZM30.8945 21C30.8945 10.5066 39.401 2 49.8945 2V0C38.2965 0 28.8945 9.40202 28.8945 21H30.8945ZM30.8945 101V21H28.8945V101H30.8945ZM29.8945 100H3.2186V102H29.8945V100ZM3.2186 100C0.703075 100 -0.695436 102.91 0.875991 104.874L2.43773 103.625C1.91392 102.97 2.38009 102 3.2186 102V100ZM0.875991 104.874L29.1136 140.171L30.6753 138.922L2.43773 103.625L0.875991 104.874ZM30.8945 171V139.546H28.8945V171H30.8945ZM49.8944 190C39.401 190 30.8945 181.493 30.8945 171H28.8945C28.8945 182.598 38.2965 192 49.8944 192V190ZM399 190H49.8944V192H399V190ZM418 171C418 181.493 409.493 190 399 190V192C410.598 192 420 182.598 420 171H418ZM418 21V171H420V21H418ZM399 2C409.493 2 418 10.5066 418 21H420C420 9.40202 410.598 0 399 0V2ZM49.8945 2H399V0H49.8945V2Z" fill="url(#paint0_linear_16301_2695)"/>
<defs>
<linearGradient id="paint0_linear_16301_2695" x1="1.21484" y1="96" x2="419" y2="96" gradientUnits="userSpaceOnUse">
<stop stop-color="#F7941D"/>
<stop offset="1" stop-color="#27AAE1"/>
</linearGradient>
</defs>
</svg>
