<svg width="98" height="98" viewBox="0 0 98 98" fill="none" xmlns="http://www.w3.org/2000/svg">
<path d="M19.581 83.0054C9.33405 83.0054 1 74.6714 1 64.4245C1 54.1776 9.33405 45.8435 19.581 45.8435C29.8279 45.8435 38.1619 54.1776 38.1619 64.4245C38.1619 74.7288 29.8299 83.0054 19.581 83.0054Z" stroke="#00093C" stroke-width="2"/>
<path d="M66.7018 1.18951L66.7019 1.18953L66.7064 1.18203C66.7848 1.0513 66.8967 1 67.0134 1C67.1306 1 67.2729 1.05435 67.3819 1.20989L88.6118 35.9012L88.6117 35.9013L88.6167 35.9092C88.7081 36.0555 88.7124 36.2407 88.6282 36.4036C88.5473 36.5602 88.4208 36.634 88.278 36.634H67.0356H45.7932C45.6297 36.634 45.5107 36.5546 45.4398 36.4198C45.3672 36.2816 45.3521 36.0884 45.465 35.8922L66.7018 1.18951Z" stroke="#00093C" stroke-width="2"/>
<path d="M37.9959 9.32904L37.9763 9.34663L37.9577 9.36523L29.532 17.791C28.6074 18.7155 28.6074 20.2981 29.532 21.2226L37.9577 29.6484C38.1012 29.7919 38.1012 30.1081 37.9577 30.2516L30.3034 37.906C30.1598 38.0495 29.8436 38.0495 29.7001 37.906L21.2744 29.4802C20.3498 28.5557 18.7673 28.5557 17.8427 29.4802L9.41698 37.906C9.27347 38.0495 8.95726 38.0495 8.81376 37.906L1.15938 30.2516C1.01588 30.1081 1.01588 29.7919 1.15938 29.6484L9.58512 21.2226C10.5097 20.2981 10.5097 18.7155 9.58513 17.791L1.15938 9.36523C1.01588 9.22173 1.01588 8.9055 1.15938 8.762L8.81376 1.10763C8.95726 0.964124 9.27347 0.964125 9.41698 1.10763L17.8427 9.53338C18.7673 10.4579 20.3498 10.4579 21.2744 9.53338L29.7001 1.10763C29.8436 0.964124 30.1599 0.964125 30.3034 1.10763L37.9577 8.762C38.0748 8.87909 38.1099 8.99867 38.1099 9.08587C38.1099 9.16994 38.0788 9.25442 37.9959 9.32904Z" stroke="#00093C" stroke-width="2"/>
<path d="M70.8842 69.8442L67.1372 63.0434M67.1372 63.0434C67.1372 63.0434 64.8536 58.8985 63.3903 56.2426C62.9219 55.3925 61.8125 55.2827 60.7632 55.4738C60.0212 55.6089 59.5833 55.8501 59.0727 56.4051C58.3506 57.1901 57.851 58.1863 58.319 59.0367C58.5485 59.4538 66.2812 73.4884 67.6863 76.0387C68.9796 78.3862 61.5324 74.2379 61.1183 74.1166C59.8051 73.7319 57.2691 75.1292 58.6741 77.6795C58.9609 78.1999 73.7005 88.5693 77.7334 91.4005C78.3579 91.8389 79.1675 91.876 79.8357 91.5079L92.6688 84.4375C93.4356 84.015 93.8382 83.1441 93.6487 82.2893C93.1371 79.9819 92.0533 75.3818 90.8737 72.1287C89.3235 67.8532 86.567 62.3119 86.0982 61.462C84.7781 59.0687 79.1534 60.8557 79.1534 60.8557M67.1372 63.0434C67.1372 63.0434 69.01 61.2375 70.5182 61.1807C71.5846 61.1406 73.1453 61.9496 73.1453 61.9496M73.1453 61.9496L75.9555 67.0502M73.1453 61.9496C73.1453 61.9496 73.4311 58.4676 78.2171 59.1552C78.3925 59.1804 79.1534 60.8557 79.1534 60.8557M81.9636 65.9563L79.1534 60.8557" stroke="#00093C" stroke-width="2"/>
</svg>
